<svg width="465" height="360" viewBox="0 0 465 360" fill="none" xmlns="http://www.w3.org/2000/svg">
<path opacity="0.4" d="M169.027 346.831C261.548 346.831 336.55 337.652 336.55 326.329C336.55 315.006 261.548 305.827 169.027 305.827C76.5062 305.827 1.50342 315.006 1.50342 326.329C1.50342 337.652 76.5062 346.831 169.027 346.831Z" fill="#3455DB"/>
<path d="M461.163 0.715637H13.6314C11.6868 0.715637 10.1104 2.29289 10.1104 4.23854V245.251C10.1104 247.197 11.6868 248.774 13.6314 248.774H461.163C463.108 248.774 464.684 247.197 464.684 245.251V4.23854C464.684 2.29289 463.108 0.715637 461.163 0.715637Z" fill="#F4F6FA"/>
<path opacity="0.8" d="M17.125 11.4363C18.7823 11.4363 20.1259 10.0921 20.1259 8.4338C20.1259 6.77555 18.7823 5.43127 17.125 5.43127C15.4676 5.43127 14.124 6.77555 14.124 8.4338C14.124 10.0921 15.4676 11.4363 17.125 11.4363Z" fill="#FA5959"/>
<path opacity="0.8" d="M25.2119 11.4363C26.8693 11.4363 28.2128 10.0921 28.2128 8.4338C28.2128 6.77555 26.8693 5.43127 25.2119 5.43127C23.5545 5.43127 22.2109 6.77555 22.2109 8.4338C22.2109 10.0921 23.5545 11.4363 25.2119 11.4363Z" fill="#FED253"/>
<path opacity="0.8" d="M33.3032 11.4363C34.9606 11.4363 36.3041 10.0921 36.3041 8.4338C36.3041 6.77555 34.9606 5.43127 33.3032 5.43127C31.6458 5.43127 30.3022 6.77555 30.3022 8.4338C30.3022 10.0921 31.6458 11.4363 33.3032 11.4363Z" fill="#8CCF4D"/>
<path d="M247.93 32.1777H33.8233C31.8787 32.1777 30.3022 33.755 30.3022 35.7006V131.399C30.3022 133.345 31.8787 134.922 33.8233 134.922H247.93C249.875 134.922 251.451 133.345 251.451 131.399V35.7006C251.451 33.755 249.875 32.1777 247.93 32.1777Z" fill="#3455DB" fill-opacity="0.4"/>
<path d="M250.582 166.251H31.1722C30.6917 166.251 30.3022 166.64 30.3022 167.121V172.431C30.3022 172.911 30.6917 173.301 31.1722 173.301H250.582C251.062 173.301 251.451 172.911 251.451 172.431V167.121C251.451 166.64 251.062 166.251 250.582 166.251Z" fill="white"/>
<path d="M250.582 181.134H31.1722C30.6917 181.134 30.3022 181.524 30.3022 182.005V187.314C30.3022 187.795 30.6917 188.185 31.1722 188.185H250.582C251.062 188.185 251.451 187.795 251.451 187.314V182.005C251.451 181.524 251.062 181.134 250.582 181.134Z" fill="white"/>
<path d="M250.582 196.013H31.1722C30.6917 196.013 30.3022 196.403 30.3022 196.884V202.193C30.3022 202.674 30.6917 203.064 31.1722 203.064H250.582C251.062 203.064 251.451 202.674 251.451 202.193V196.884C251.451 196.403 251.062 196.013 250.582 196.013Z" fill="white"/>
<path d="M250.582 210.897H31.1722C30.6917 210.897 30.3022 211.287 30.3022 211.767V217.077C30.3022 217.558 30.6917 217.948 31.1722 217.948H250.582C251.062 217.948 251.451 217.558 251.451 217.077V211.767C251.451 211.287 251.062 210.897 250.582 210.897Z" fill="white"/>
<path d="M250.582 225.776H31.1722C30.6917 225.776 30.3022 226.166 30.3022 226.647V231.956C30.3022 232.437 30.6917 232.827 31.1722 232.827H250.582C251.062 232.827 251.451 232.437 251.451 231.956V226.647C251.451 226.166 251.062 225.776 250.582 225.776Z" fill="white"/>
<path d="M435.669 32.1777H280.669C278.724 32.1777 277.148 33.755 277.148 35.7006V229.304C277.148 231.249 278.724 232.827 280.669 232.827H435.669C437.613 232.827 439.19 231.249 439.19 229.304V35.7006C439.19 33.755 437.613 32.1777 435.669 32.1777Z" fill="white"/>
<path opacity="0.2" d="M314.508 55.2953H287.021C286.54 55.2953 286.151 55.685 286.151 56.1657V61.4754C286.151 61.956 286.54 62.3457 287.021 62.3457H314.508C314.988 62.3457 315.378 61.956 315.378 61.4754V56.1657C315.378 55.685 314.988 55.2953 314.508 55.2953Z" fill="#3455DB"/>
<path d="M430.624 68.6086H287.021C286.54 68.6086 286.151 68.9983 286.151 69.479V74.7887C286.151 75.2694 286.54 75.6591 287.021 75.6591H430.624C431.105 75.6591 431.494 75.2694 431.494 74.7887V69.479C431.494 68.9983 431.105 68.6086 430.624 68.6086Z" fill="#E8EAF2"/>
<path d="M430.624 81.9266H287.021C286.54 81.9266 286.151 82.3163 286.151 82.797V88.1067C286.151 88.5874 286.54 88.977 287.021 88.977H430.624C431.105 88.977 431.494 88.5874 431.494 88.1067V82.797C431.494 82.3163 431.105 81.9266 430.624 81.9266Z" fill="#E8EAF2"/>
<path opacity="0.2" d="M314.508 108.553H287.021C286.54 108.553 286.151 108.943 286.151 109.424V114.733C286.151 115.214 286.54 115.604 287.021 115.604H314.508C314.988 115.604 315.378 115.214 315.378 114.733V109.424C315.378 108.943 314.988 108.553 314.508 108.553Z" fill="#3455DB"/>
<path d="M430.624 121.871H287.021C286.54 121.871 286.151 122.261 286.151 122.742V128.051C286.151 128.532 286.54 128.922 287.021 128.922H430.624C431.105 128.922 431.494 128.532 431.494 128.051V122.742C431.494 122.261 431.105 121.871 430.624 121.871Z" fill="#E8EAF2"/>
<path d="M430.624 135.185H287.021C286.54 135.185 286.151 135.574 286.151 136.055V141.365C286.151 141.845 286.54 142.235 287.021 142.235H430.624C431.105 142.235 431.494 141.845 431.494 141.365V136.055C431.494 135.574 431.105 135.185 430.624 135.185Z" fill="#E8EAF2"/>
<path opacity="0.2" d="M314.508 161.816H287.021C286.54 161.816 286.151 162.206 286.151 162.686V167.996C286.151 168.477 286.54 168.866 287.021 168.866H314.508C314.988 168.866 315.378 168.477 315.378 167.996V162.686C315.378 162.206 314.988 161.816 314.508 161.816Z" fill="#3455DB"/>
<path d="M430.624 175.129H287.021C286.54 175.129 286.151 175.519 286.151 176V181.309C286.151 181.79 286.54 182.18 287.021 182.18H430.624C431.105 182.18 431.494 181.79 431.494 181.309V176C431.494 175.519 431.105 175.129 430.624 175.129Z" fill="#E8EAF2"/>
<path d="M430.624 188.443H287.021C286.54 188.443 286.151 188.832 286.151 189.313V194.623C286.151 195.103 286.54 195.493 287.021 195.493H430.624C431.105 195.493 431.494 195.103 431.494 194.623V189.313C431.494 188.832 431.105 188.443 430.624 188.443Z" fill="#E8EAF2"/>
<path d="M428.539 215.074H401.052C400.572 215.074 400.182 215.464 400.182 215.944V221.254C400.182 221.735 400.572 222.124 401.052 222.124H428.539C429.02 222.124 429.409 221.735 429.409 221.254V215.944C429.409 215.464 429.02 215.074 428.539 215.074Z" fill="#3455DB"/>
<path d="M250.582 142.235H223.095C222.614 142.235 222.225 142.625 222.225 143.105V148.415C222.225 148.896 222.614 149.285 223.095 149.285H250.582C251.062 149.285 251.452 148.896 251.452 148.415V143.105C251.452 142.625 251.062 142.235 250.582 142.235Z" fill="#3455DB"/>
<path d="M233.372 155.291C233.806 155.885 234.325 156.411 234.914 156.852C235.301 157.169 235.692 157.492 236.102 157.773L236.461 158.012C236.447 158.033 236.434 158.054 236.424 158.077C236.327 158.252 236.29 158.454 236.318 158.652C236.406 158.892 236.567 159.098 236.778 159.242C237.736 160.132 238.382 161.308 238.619 162.594C238.762 163.34 238.26 164.137 238.292 164.897C238.365 165.64 238.563 166.365 238.877 167.043C239.503 168.641 240.17 170.294 241.427 171.459C241.723 174.025 242.711 176.462 244.285 178.509C245.606 180.204 247.369 181.48 249.104 182.737C249.654 183.178 250.254 183.553 250.89 183.856C251.462 184.065 252.052 184.219 252.653 184.316C257.749 185.351 262.925 185.945 268.122 186.094C268.27 189.189 268.333 192.286 268.311 195.387C268.339 195.897 268.267 196.407 268.099 196.888C267.842 197.341 267.533 197.763 267.179 198.146C265.987 199.73 265.927 201.871 266.028 203.851C266.144 206.169 266.413 208.477 266.834 210.759C267.372 213.679 266.88 216.907 267.915 219.684C268.325 220.78 268.735 221.88 269.14 222.976C269.277 223.283 269.36 223.612 269.384 223.948C269.384 224.671 268.923 225.283 268.555 225.91C268.044 226.82 267.795 227.855 267.837 228.898C267.833 229.017 267.863 229.134 267.924 229.235C268.058 229.414 268.33 229.4 268.555 229.364C269.471 229.233 270.392 229.148 271.317 229.11C271.148 229.317 270.994 229.536 270.856 229.764C270.635 230.152 270.44 230.553 270.272 230.966C269.941 231.655 269.681 232.376 269.494 233.117C269.46 233.224 269.434 233.333 269.416 233.444C269.365 233.665 269.319 233.904 269.282 234.111C269.085 235.419 269.005 236.741 269.043 238.063C268.914 240.526 268.79 243.096 268.55 243.851C268.214 244.915 268.633 246.614 269.048 248.24C269.069 249.361 269.271 250.471 269.646 251.528C269.679 252.693 269.813 253.854 270.046 254.996C271.467 263.012 272.983 271.014 274.594 279.002C274.736 279.693 274.875 280.384 275.054 281.065C275.653 283.285 276.701 285.359 278.133 287.158C279.393 288.752 280.473 290.48 281.355 292.311C281.263 292.744 281.166 293.181 281.06 293.614C280.14 297.436 278.962 301.203 278.543 305.127C278.377 306.683 278.331 308.286 277.714 309.732C277.401 310.464 276.941 311.159 276.877 311.956C276.84 312.46 276.959 312.963 277.217 313.398L276.913 313.646L276.743 313.784C275.574 314.705 274.009 314.903 272.569 315.281C271.128 315.659 269.581 316.414 269.135 317.846C269.106 317.935 269.082 318.026 269.066 318.118C268.804 319.435 269.6 320.835 270.723 321.608C271.92 322.433 273.411 322.686 274.865 322.875C276.32 323.064 277.793 323.197 279.095 323.846C280.223 324.404 281.171 325.32 282.363 325.725L282.579 325.785C282.308 325.946 282.041 326.103 281.76 326.246C280.526 326.885 279.192 327.31 277.816 327.503C276.435 327.692 274.769 327.784 274.055 328.995C273.471 329.994 273.894 331.348 274.736 332.14C275.579 332.932 276.748 333.282 277.875 333.522C280.458 334.028 283.072 334.353 285.7 334.493L288.25 334.691C290.74 334.88 293.235 335.074 295.738 335.083C298.825 335.093 301.906 334.825 304.944 334.282C305.064 334.292 305.185 334.274 305.297 334.231C305.409 334.187 305.51 334.118 305.592 334.029C305.673 333.94 305.733 333.833 305.767 333.717C305.8 333.601 305.807 333.479 305.786 333.361C305.732 330.232 305.352 327.118 304.654 324.068C304.442 323.147 303.195 324.404 302.5 325.191C302.403 324.731 302.302 324.27 302.182 323.842L302.73 323.584C303.148 323.424 303.501 323.129 303.733 322.746C303.845 322.436 303.881 322.105 303.839 321.779C303.738 319.771 303.614 317.689 302.661 315.926C302.039 314.871 301.264 313.914 300.36 313.089C300.142 306.774 299.372 300.49 298.058 294.309C297.354 291.164 296.479 287.982 294.661 285.32C294.431 284.989 294.201 284.657 293.939 284.321C293.742 281.296 293.377 278.284 292.843 275.299C292.737 274.906 292.737 274.491 292.843 274.098C293.018 273.759 293.241 273.449 293.506 273.177C294.602 271.763 294.155 269.755 294.026 267.968C293.847 265.408 294.45 262.861 295.053 260.361L297.276 251.109C297.457 250.232 297.719 249.373 298.058 248.544C298.643 247.42 299.312 246.342 300.06 245.32C302.137 242.047 303.114 238.196 302.85 234.328C303.273 234.48 303.692 234.632 304.106 234.788C304.419 232.205 303.328 229.262 304.106 226.845C305.445 225.869 306.526 224.58 307.254 223.091C307.866 221.71 308.037 220.19 308.677 218.836C309.036 218.072 309.542 217.372 309.754 216.534C310.067 215.309 309.671 214.019 309.689 212.753C309.731 209.99 311.724 207.443 311.295 204.726C311.088 203.437 310.338 202.235 310.375 200.927C310.437 200.218 310.616 199.524 310.904 198.873C312.423 194.862 313.91 190.584 313.137 186.37C312.939 185.288 312.589 184.215 312.649 183.119C312.713 181.862 313.307 180.642 313.109 179.394C313.034 178.92 312.843 178.472 312.552 178.09C313.094 177.256 313.557 176.373 313.933 175.452C314.182 174.924 314.306 174.345 314.296 173.762C314.243 173.364 314.111 172.982 313.907 172.637C313.703 172.292 313.431 171.991 313.109 171.754C312.459 171.289 311.766 170.89 311.038 170.561C310.809 170.459 310.604 170.312 310.435 170.128C310.305 169.921 310.191 169.704 310.094 169.479C309.689 168.774 308.805 168.558 308.115 168.13C305.607 166.596 305.846 162.649 303.706 160.632C302.977 159.979 302.047 159.595 301.07 159.543C300.093 159.491 299.128 159.775 298.334 160.347C298.132 160.553 297.866 160.685 297.58 160.72C297.303 160.664 297.048 160.528 296.848 160.328C296.315 159.97 295.68 159.793 295.039 159.827C294.645 158.256 294.475 156.637 294.533 155.019H294.726C294.979 155.027 295.232 154.997 295.476 154.931C296.576 154.614 297.202 153.471 297.653 152.412C298.042 151.516 298.365 150.593 298.62 149.649C298.643 149.557 298.661 149.47 298.684 149.378C300.792 150.86 303.241 152.412 303.83 152.085C304.907 151.491 298.997 147.282 298.997 147.282C299.692 146.665 300.079 145.551 300.254 144.565C300.672 142.607 300.687 140.584 300.3 138.62C299.839 136.681 298.675 134.835 296.908 133.927C296.125 133.522 295.177 133.246 294.606 132.624C294.519 132.532 294.444 132.43 294.381 132.32V132.32C294.349 132.268 294.32 132.214 294.293 132.159C294.233 131.987 294.149 131.825 294.045 131.676C293.722 131.298 293.124 131.413 292.664 131.473H292.503H292.374H292.24C290.487 131.51 288.788 130.529 287.016 130.529C285.074 130.529 283.417 131.657 281.709 132.431C281.364 132.587 281.037 132.73 280.729 132.891C279.657 133.393 278.814 133.923 278.276 135.129C277.936 135.529 277.691 136.002 277.562 136.511C277.51 136.744 277.479 136.981 277.47 137.22C275.996 138.68 274.934 140.505 274.393 142.508C273.851 144.512 273.848 146.623 274.385 148.628C274.922 150.632 275.98 152.459 277.45 153.923C278.921 155.387 280.752 156.435 282.759 156.962C282.8 157.077 282.846 157.192 282.883 157.312C283.234 158.371 283.407 159.48 283.394 160.596C283.394 160.674 283.394 160.752 283.394 160.835C282.501 161.046 281.645 161.394 280.858 161.867C279.854 162.461 279.094 163.393 278.713 164.496C278.69 164.584 278.667 164.667 278.649 164.745C278.024 164.539 277.373 164.427 276.716 164.413C276.419 164.371 276.117 164.394 275.83 164.48C275.543 164.565 275.279 164.712 275.054 164.911C274.903 165.098 274.796 165.317 274.741 165.551C274.516 165.758 274.474 166.122 274.313 166.398C273.821 167.264 272.536 166.978 271.551 167.218C270.502 167.476 269.674 168.461 268.596 168.466C268.185 168.402 267.768 168.387 267.354 168.42C266.949 168.521 266.631 169.078 266.939 169.341C266.697 169.316 266.453 169.358 266.234 169.464C266.014 169.57 265.828 169.734 265.697 169.939C265.398 170.326 265.204 170.787 264.873 171.15C264.731 170.952 264.535 170.799 264.307 170.711C264.08 170.622 263.832 170.602 263.593 170.653C263.117 170.758 262.66 170.939 262.24 171.187C262.053 171.288 261.851 171.358 261.642 171.395C261.398 171.41 261.152 171.388 260.915 171.33C259.759 171.137 258.572 171.297 257.509 171.791C256.588 172.251 255.668 171.418 254.637 171.353C254.259 171.374 253.886 171.258 253.587 171.026C253.393 170.784 253.258 170.5 253.191 170.197C252.959 169.532 252.561 168.938 252.034 168.471C251.507 168.004 250.869 167.681 250.181 167.531C250.449 166.683 250.386 165.766 250.004 164.963C249.622 164.16 248.95 163.533 248.124 163.207C248.191 162.599 248.108 161.985 247.884 161.416C247.659 160.848 247.299 160.343 246.835 159.946C246.607 159.794 246.392 159.625 246.191 159.44C245.917 159.117 245.713 158.74 245.592 158.334C245.285 157.53 244.979 156.724 244.672 155.917C244.271 155.834 243.954 155.668 243.572 155.604C243.572 155.521 243.572 155.438 243.572 155.355C243.56 154.528 243.42 153.708 243.157 152.923C242.688 151.65 242.03 150.455 241.206 149.378C240.336 148.157 239.365 146.96 238.072 146.223C237.639 145.991 237.193 145.785 236.737 145.606L234.385 144.634C234.25 144.571 234.105 144.533 233.957 144.524C233.322 144.524 233.206 145.5 233.565 146.025C234.284 147.08 235.894 147.374 236.35 148.572C235.967 148.585 235.599 148.719 235.297 148.955C234.995 149.191 234.776 149.516 234.67 149.884C234.653 150.079 234.574 150.262 234.445 150.409C234.238 150.579 233.911 150.483 233.676 150.612C233.257 150.833 233.441 151.459 233.395 151.933C233.294 152.345 233.151 152.744 232.967 153.126C232.868 153.494 232.853 153.88 232.923 154.254C232.993 154.629 233.147 154.983 233.372 155.291V155.291ZM289.755 320.278L289.7 319.55C289.75 319.679 289.796 319.812 289.847 319.941C290.261 321.028 290.722 322.103 291.228 323.165L291.14 323.123C290.784 322.96 290.406 322.851 290.017 322.801C289.916 322.801 289.81 322.778 289.704 322.773C289.84 321.948 289.857 321.108 289.755 320.278V320.278Z" fill="url(#paint0_linear)"/>
<path d="M283.38 161.535C283.334 163.253 282.754 164.92 282.662 166.633C287.725 166.886 292.71 164.432 297.713 165.182C296.332 164.261 295.568 162.645 295.126 161.038C294.565 158.964 294.398 156.804 294.634 154.669C294.646 154.55 294.666 154.431 294.693 154.314C294.882 153.476 295.361 152.288 295.232 151.625C295.062 150.75 294.238 150.925 293.497 150.976C291.234 151.146 288.981 151.436 286.749 151.846C286.165 151.947 280.499 153.361 280.416 153.227C281.409 154.825 282.231 156.523 282.869 158.293C283.217 159.338 283.39 160.434 283.38 161.535Z" fill="#EE8E9E"/>
<path d="M233.372 156.225C233.804 156.821 234.324 157.347 234.914 157.786C235.301 158.1 235.692 158.422 236.102 158.707C236.837 159.273 237.712 159.627 238.633 159.734C239.834 159.817 242.393 159.108 243.144 158.077C243.457 157.557 243.607 156.955 243.572 156.35C243.56 155.527 243.42 154.712 243.157 153.932C242.688 152.663 242.03 151.473 241.206 150.4C240.336 149.189 239.365 147.996 238.072 147.264C237.64 147.032 237.194 146.827 236.737 146.651L234.385 145.675C234.25 145.612 234.105 145.574 233.957 145.565C233.322 145.565 233.206 146.536 233.565 147.057C234.283 148.107 235.894 148.401 236.35 149.594C235.968 149.604 235.599 149.736 235.297 149.97C234.994 150.204 234.775 150.529 234.67 150.897C234.652 151.092 234.574 151.276 234.445 151.422C234.237 151.588 233.911 151.496 233.676 151.62C233.257 151.841 233.441 152.468 233.395 152.937C233.292 153.347 233.149 153.745 232.967 154.125C232.875 154.484 232.864 154.858 232.934 155.221C233.004 155.584 233.154 155.927 233.372 156.225V156.225Z" fill="#EE8E9E"/>
<path d="M303.103 328.498C302.711 328.111 302.076 328.175 301.533 328.263C298.606 328.719 295.649 328.951 292.687 328.958C292.319 327.153 293.391 325.394 293.736 323.584C293.784 323.109 293.902 322.643 294.086 322.202C294.505 321.401 295.467 321.037 296.323 320.853C297.911 320.517 300.396 319.932 301.285 321.53C302.348 323.478 302.688 326.329 303.103 328.498Z" fill="#65617D"/>
<path d="M270.759 321.65C271.956 322.47 273.447 322.723 274.902 322.912C276.356 323.1 277.829 323.234 279.132 323.874C280.259 324.431 281.208 325.343 282.4 325.744C283.509 326.05 284.678 326.069 285.796 325.799C287.136 325.546 288.558 325.058 289.285 323.902C289.93 322.87 289.861 321.567 289.773 320.356C289.667 318.974 289.571 317.593 289.469 316.243C289.472 315.895 289.383 315.552 289.212 315.249C288.245 313.835 285.888 315.838 284.609 315.838C282.611 315.838 280.467 314.751 279.026 313.425C278.899 313.295 278.753 313.185 278.593 313.098C278.022 312.845 277.456 313.315 276.95 313.729L276.78 313.867C275.611 314.788 274.046 314.982 272.605 315.355C271.164 315.728 269.618 316.483 269.172 317.906C269.142 317.996 269.119 318.089 269.103 318.182C268.84 319.49 269.636 320.885 270.759 321.65Z" fill="#3F3D56"/>
<path opacity="0.05" d="M270.759 321.65C271.956 322.47 273.447 322.723 274.902 322.912C276.356 323.1 277.829 323.234 279.132 323.874C280.259 324.431 281.208 325.343 282.4 325.744C283.509 326.05 284.678 326.069 285.796 325.799C287.136 325.546 288.558 325.058 289.285 323.902C289.93 322.87 289.861 321.567 289.773 320.356C289.667 318.974 289.571 317.593 289.469 316.243C289.472 315.895 289.383 315.552 289.212 315.249C288.245 313.835 285.888 315.838 284.609 315.838C282.611 315.838 280.467 314.751 279.026 313.425C278.899 313.295 278.753 313.185 278.593 313.098C278.022 312.845 277.456 313.315 276.95 313.729L276.78 313.867C275.611 314.788 274.046 314.982 272.605 315.355C271.164 315.728 269.618 316.483 269.172 317.906C269.142 317.996 269.119 318.089 269.103 318.182C268.84 319.49 269.636 320.885 270.759 321.65Z" fill="black"/>
<path d="M270.76 322.11C271.956 322.93 273.448 323.183 274.902 323.372C276.357 323.561 277.829 323.695 279.132 324.335C280.26 324.892 281.208 325.804 282.4 326.204C283.509 326.51 284.678 326.529 285.797 326.26C287.222 325.957 288.473 325.111 289.286 323.902C289.93 322.87 289.861 321.567 289.773 320.356C289.668 318.974 289.571 317.593 289.47 316.243C289.472 315.895 289.383 315.552 289.212 315.249C288.245 313.835 285.889 315.838 284.609 315.838C282.612 315.838 280.467 314.751 279.026 313.425C278.899 313.295 278.754 313.185 278.594 313.098C278.023 312.845 277.457 313.315 276.95 313.729C277.278 314.754 277.742 315.73 278.331 316.63C278.814 317.389 279.459 318.03 280.22 318.508C280.981 318.986 281.839 319.288 282.731 319.393C283.624 319.458 284.54 319.283 285.406 319.513C286.271 319.743 287.072 320.628 286.786 321.466C286.501 322.304 285.429 322.465 284.559 322.511C283.344 322.65 282.114 322.563 280.932 322.253C280.223 322.018 279.551 321.627 278.888 321.332C275.956 320.121 272.26 320.798 269.844 318.749C269.614 318.538 269.366 318.348 269.103 318.182C268.468 319.508 269.637 321.346 270.76 322.11Z" fill="#E8EAF2"/>
<path opacity="0.05" d="M270.76 322.11C271.956 322.93 273.448 323.183 274.902 323.372C276.357 323.561 277.829 323.695 279.132 324.335C280.26 324.892 281.208 325.804 282.4 326.204C283.509 326.51 284.678 326.529 285.797 326.26C287.222 325.957 288.473 325.111 289.286 323.902C289.93 322.87 289.861 321.567 289.773 320.356C289.668 318.974 289.571 317.593 289.47 316.243C289.472 315.895 289.383 315.552 289.212 315.249C288.245 313.835 285.889 315.838 284.609 315.838C282.612 315.838 280.467 314.751 279.026 313.425C278.899 313.295 278.754 313.185 278.594 313.098C278.023 312.845 277.457 313.315 276.95 313.729C277.278 314.754 277.742 315.73 278.331 316.63C278.814 317.389 279.459 318.03 280.22 318.508C280.981 318.986 281.839 319.288 282.731 319.393C283.624 319.458 284.54 319.283 285.406 319.513C286.271 319.743 287.072 320.628 286.786 321.466C286.501 322.304 285.429 322.465 284.559 322.511C283.344 322.65 282.114 322.563 280.932 322.253C280.223 322.018 279.551 321.627 278.888 321.332C275.956 320.121 272.26 320.798 269.844 318.749C269.614 318.538 269.366 318.348 269.103 318.182C268.468 319.508 269.637 321.346 270.76 322.11Z" fill="black"/>
<path d="M302.532 232.472C303.465 237.055 302.578 241.822 300.061 245.762C299.312 246.784 298.642 247.862 298.058 248.986C297.719 249.81 297.458 250.664 297.276 251.537L295.053 260.747C294.45 263.234 293.847 265.767 294.026 268.314C294.155 270.091 294.602 272.09 293.506 273.494C293.242 273.767 293.019 274.078 292.844 274.415C292.738 274.807 292.738 275.22 292.844 275.613C293.967 282.295 294.8 289.281 292.77 295.746C290.929 301.608 290.823 308.102 289.258 314.038C289.131 314.792 288.794 315.496 288.287 316.068C287.867 316.419 287.365 316.657 286.828 316.759C284.527 317.312 282.087 316.667 279.924 315.668C278.414 314.968 276.785 313.738 276.914 312.076C276.978 311.288 277.438 310.593 277.751 309.865C278.368 308.438 278.414 306.84 278.58 305.293C278.999 301.41 280.195 297.657 281.098 293.858C282 290.059 282.616 286.089 281.852 282.258C280.29 274.334 277.785 266.625 274.391 259.297C274.245 258.907 274.012 258.556 273.71 258.27C273.363 258.068 273.034 257.837 272.725 257.579C272.483 257.218 272.326 256.807 272.265 256.377C271.929 255.166 270.93 254.273 270.258 253.204C268.565 250.515 269.103 247.07 269.167 243.893C269.227 240.807 268.781 237.69 269.287 234.641C269.793 231.592 271.538 228.475 274.474 227.522C275.929 227.061 277.503 227.158 279.026 227.305C287.127 228.106 294.961 229.571 302.532 232.472Z" fill="#303D5C"/>
<path opacity="0.05" d="M302.532 232.472C303.465 237.055 302.578 241.822 300.061 245.762C299.312 246.784 298.642 247.862 298.058 248.986C297.719 249.81 297.458 250.664 297.276 251.537L295.053 260.747C294.45 263.234 293.847 265.767 294.026 268.314C294.155 270.091 294.602 272.09 293.506 273.494C293.242 273.767 293.019 274.078 292.844 274.415C292.738 274.807 292.738 275.22 292.844 275.613C293.967 282.295 294.8 289.281 292.77 295.746C290.929 301.608 290.823 308.102 289.258 314.038C289.131 314.792 288.794 315.496 288.287 316.068C287.867 316.419 287.365 316.657 286.828 316.759C284.527 317.312 282.087 316.667 279.924 315.668C278.414 314.968 276.785 313.738 276.914 312.076C276.978 311.288 277.438 310.593 277.751 309.865C278.368 308.438 278.414 306.84 278.58 305.293C278.999 301.41 280.195 297.657 281.098 293.858C282 290.059 282.616 286.089 281.852 282.258C280.29 274.334 277.785 266.625 274.391 259.297C274.245 258.907 274.012 258.556 273.71 258.27C273.363 258.068 273.034 257.837 272.725 257.579C272.483 257.218 272.326 256.807 272.265 256.377C271.929 255.166 270.93 254.273 270.258 253.204C268.565 250.515 269.103 247.07 269.167 243.893C269.227 240.807 268.781 237.69 269.287 234.641C269.793 231.592 271.538 228.475 274.474 227.522C275.929 227.061 277.503 227.158 279.026 227.305C287.127 228.106 294.961 229.571 302.532 232.472Z" fill="black"/>
<path d="M269.683 251.841C269.71 253.042 269.845 254.238 270.088 255.415C271.509 263.397 273.024 271.356 274.635 279.292C274.778 279.983 274.916 280.674 275.096 281.346C275.694 283.557 276.742 285.62 278.175 287.406C284.876 295.765 285.456 307.899 289.088 317.98C289.336 318.661 289.58 319.361 289.843 320.02C290.499 321.727 291.247 323.398 292.084 325.025C292.182 325.262 292.341 325.469 292.544 325.624C292.771 325.735 293.024 325.783 293.276 325.762C296.547 325.782 299.779 325.048 302.721 323.616C303.139 323.458 303.492 323.165 303.724 322.783C303.836 322.475 303.872 322.145 303.83 321.82C303.729 319.822 303.605 317.754 302.652 315.995C302.029 314.946 301.253 313.996 300.35 313.176C300.134 306.895 299.364 300.644 298.049 294.498C297.345 291.367 296.47 288.203 294.652 285.555C293.313 283.602 291.389 281.673 291.624 279.315C291.73 278.279 292.162 276.99 291.32 276.382C290.952 276.115 290.4 276.082 290.16 275.7C290.059 275.522 290.004 275.321 289.999 275.115C289.825 273.498 289.924 271.864 290.294 270.28C290.602 269.245 290.843 268.191 291.016 267.125C291.099 266.591 291.071 266.045 290.935 265.522C290.798 264.998 290.557 264.508 290.225 264.081C290.179 261.926 290.225 259.693 290.197 257.542C290.111 256.318 290.212 255.088 290.496 253.895C290.662 253.333 290.91 252.794 291.035 252.219C291.495 250.151 290.363 247.673 291.697 246.034C292.254 245.357 293.115 245.016 293.842 244.524C295.272 243.483 296.31 241.99 296.788 240.287C297.26 238.595 297.539 236.856 297.621 235.102C297.66 234.73 297.66 234.354 297.621 233.983C297.595 233.791 297.544 233.603 297.469 233.425C297.055 232.504 295.937 232.127 294.942 231.887C288.626 230.373 282.152 229.616 275.657 229.631C273.255 227.996 271.901 228.581 270.884 230.317C270.321 231.373 269.866 232.484 269.526 233.633C269.066 235.042 269.034 242.912 268.578 244.326C268.003 246.163 269.706 249.916 269.683 251.841Z" fill="#303D5C"/>
<path d="M313.127 180.213C313.302 181.452 312.709 182.668 312.667 183.897C312.607 184.993 312.957 186.057 313.155 187.121C313.928 191.316 312.442 195.567 310.923 199.555C310.635 200.202 310.456 200.893 310.393 201.599C310.352 202.903 311.102 204.095 311.314 205.38C311.742 208.083 309.749 210.625 309.708 213.361C309.708 214.623 310.085 215.903 309.772 217.123C309.485 217.913 309.124 218.675 308.695 219.398C308.055 220.743 307.885 222.272 307.273 223.63C306.173 226.089 303.807 227.692 301.552 229.156C300.272 228.728 298.887 228.235 298.183 227.07C297.873 226.499 297.673 225.874 297.593 225.228C297.106 222.428 297.133 219.569 297.133 216.727C297.091 214.283 297.221 211.84 297.52 209.414C297.98 206.324 298.979 203.349 299.697 200.315C300.617 196.483 301.078 192.527 302.458 188.852C303.697 185.629 305.63 182.728 307.659 179.955C308.437 178.896 309.04 177.381 310.554 177.625C311.198 177.737 311.792 178.046 312.252 178.51C312.713 178.973 313.019 179.569 313.127 180.213V180.213Z" fill="#3F3D56"/>
<path opacity="0.05" d="M313.127 180.213C313.302 181.452 312.709 182.668 312.667 183.897C312.607 184.993 312.957 186.057 313.155 187.121C313.928 191.316 312.442 195.567 310.923 199.555C310.635 200.202 310.456 200.893 310.393 201.599C310.352 202.903 311.102 204.095 311.314 205.38C311.742 208.083 309.749 210.625 309.708 213.361C309.708 214.623 310.085 215.903 309.772 217.123C309.485 217.913 309.124 218.675 308.695 219.398C308.055 220.743 307.885 222.272 307.273 223.63C306.173 226.089 303.807 227.692 301.552 229.156C300.272 228.728 298.887 228.235 298.183 227.07C297.873 226.499 297.673 225.874 297.593 225.228C297.106 222.428 297.133 219.569 297.133 216.727C297.091 214.283 297.221 211.84 297.52 209.414C297.98 206.324 298.979 203.349 299.697 200.315C300.617 196.483 301.078 192.527 302.458 188.852C303.697 185.629 305.63 182.728 307.659 179.955C308.437 178.896 309.04 177.381 310.554 177.625C311.198 177.737 311.792 178.046 312.252 178.51C312.713 178.973 313.019 179.569 313.127 180.213V180.213Z" fill="black"/>
<path opacity="0.1" d="M280.416 153.209C281.409 154.807 282.231 156.505 282.869 158.275C283.78 158.499 284.715 158.612 285.654 158.611C289.299 158.611 291.881 156.538 294.021 153.918C294.206 153.075 295.361 152.293 295.232 151.616C295.062 150.741 294.238 150.916 293.497 150.966C291.234 151.136 288.981 151.427 286.749 151.837C286.165 151.943 280.499 153.356 280.416 153.209Z" fill="black"/>
<path d="M285.654 158.288C292.103 158.288 297.331 153.058 297.331 146.605C297.331 140.153 292.103 134.922 285.654 134.922C279.205 134.922 273.977 140.153 273.977 146.605C273.977 153.058 279.205 158.288 285.654 158.288Z" fill="#EE8E9E"/>
<path opacity="0.1" d="M270.884 230.317C272.905 230.197 274.939 230.275 276.969 230.358C278.238 230.372 279.503 230.501 280.748 230.745C282.281 231.095 283.717 231.795 285.226 232.233C287.652 232.937 290.206 232.969 292.715 233.213C294.364 233.375 296.002 233.632 297.621 233.983C297.596 233.791 297.544 233.603 297.469 233.425C297.055 232.504 295.937 232.127 294.942 231.887C288.626 230.373 282.152 229.616 275.657 229.631C273.268 227.996 271.915 228.567 270.884 230.317Z" fill="black"/>
<path d="M278.856 165.73C279.367 166.32 280.048 166.969 280.803 166.78C281.076 166.684 281.332 166.546 281.562 166.37C282.906 165.505 284.559 165.302 286.142 165.063C289.335 164.58 292.49 163.87 295.582 162.94C296.478 162.613 297.419 162.422 298.371 162.373C300.35 162.373 302.104 163.699 303.347 165.242C304.59 166.785 305.464 168.59 306.684 170.151C307.549 171.266 308.58 172.246 309.39 173.402C311.438 176.317 311.876 180.121 311.346 183.644C310.817 187.167 309.413 190.487 308.019 193.775C307.276 195.68 306.367 197.515 305.303 199.26C305.763 201.936 305.524 204.998 304.254 207.397C303.839 208.18 303.333 208.94 303.195 209.815C303.132 210.406 303.157 211.004 303.269 211.588L303.862 215.82C304.042 217.109 304.221 218.399 304.456 219.674C304.884 222.018 305.469 224.56 304.382 226.679C303.084 229.216 304.451 232.467 304.106 235.3C300.454 233.886 296.626 232.977 292.728 232.596C290.22 232.348 287.666 232.315 285.24 231.611C283.73 231.15 282.294 230.473 280.762 230.123C279.516 229.879 278.251 229.75 276.983 229.737C274.184 229.626 271.367 229.511 268.597 229.925C268.371 229.958 268.1 229.976 267.966 229.796C267.905 229.697 267.875 229.582 267.879 229.465C267.837 228.426 268.086 227.396 268.597 226.49C268.951 225.868 269.439 225.256 269.425 224.537C269.401 224.203 269.318 223.876 269.181 223.57L267.957 220.278C266.921 217.515 267.414 214.291 266.875 211.399C266.455 209.129 266.186 206.834 266.07 204.528C265.969 202.557 266.028 200.425 267.22 198.85C267.575 198.472 267.884 198.053 268.141 197.602C268.309 197.124 268.38 196.617 268.353 196.11C268.38 192.168 268.273 188.228 268.031 184.289C269.066 182.447 270.143 180.522 271.183 178.661C272.389 176.492 273.609 174.282 274.097 171.85C274.419 170.239 274.41 168.585 274.64 166.96C274.631 166.703 274.682 166.447 274.79 166.214C274.898 165.98 275.059 165.775 275.261 165.616C275.463 165.456 275.699 165.346 275.951 165.295C276.203 165.244 276.463 165.252 276.711 165.32C277.443 165.348 278.166 165.486 278.856 165.73V165.73Z" fill="#3F3D56"/>
<path opacity="0.1" d="M236.102 158.712C236.837 159.277 237.712 159.632 238.633 159.739C239.834 159.822 242.393 159.113 243.144 158.081C243.457 157.562 243.607 156.96 243.572 156.354C243.41 156.3 243.241 156.267 243.07 156.258C241.764 156.109 240.443 156.161 239.153 156.414C238.505 156.544 237.895 156.818 237.369 157.217C236.842 157.616 236.412 158.128 236.111 158.717C236.111 158.717 236.106 158.707 236.102 158.712Z" fill="black"/>
<path d="M274.957 183.98C274.244 184.864 273.503 185.776 272.495 186.283C271.335 186.886 269.968 186.9 268.661 186.872C263.28 186.757 257.92 186.167 252.643 185.109C252.043 185.009 251.453 184.855 250.881 184.648C250.245 184.345 249.646 183.971 249.095 183.534C247.36 182.286 245.597 181.01 244.276 179.325C242.708 177.294 241.723 174.874 241.427 172.325C240.17 171.164 239.503 169.52 238.877 167.932C238.563 167.257 238.366 166.535 238.292 165.795C238.26 165.04 238.753 164.247 238.619 163.492C238.379 162.212 237.734 161.043 236.778 160.158C236.566 160.017 236.405 159.812 236.318 159.573C236.291 159.376 236.328 159.176 236.424 159.002C236.726 158.415 237.157 157.904 237.683 157.505C238.21 157.107 238.819 156.831 239.466 156.7C240.758 156.449 242.08 156.397 243.387 156.543C243.822 156.625 244.249 156.739 244.667 156.884L245.588 159.288C245.709 159.692 245.912 160.067 246.186 160.388C246.387 160.574 246.603 160.743 246.83 160.895C247.291 161.286 247.65 161.785 247.875 162.347C248.099 162.909 248.183 163.517 248.119 164.119C248.945 164.439 249.617 165.062 249.999 165.861C250.381 166.661 250.445 167.575 250.176 168.42C250.863 168.567 251.5 168.889 252.027 169.353C252.554 169.818 252.953 170.409 253.187 171.072C253.253 171.374 253.388 171.656 253.582 171.897C253.882 172.126 254.254 172.242 254.632 172.223C255.663 172.283 256.565 173.098 257.504 172.656C258.567 172.163 259.754 172.003 260.91 172.196C261.148 172.249 261.393 172.271 261.637 172.26C261.846 172.223 262.048 172.153 262.235 172.053C262.656 171.806 263.113 171.626 263.589 171.519C263.827 171.469 264.075 171.49 264.302 171.578C264.529 171.666 264.726 171.819 264.868 172.016C265.2 171.657 265.393 171.197 265.692 170.81C265.824 170.606 266.011 170.443 266.23 170.338C266.449 170.233 266.693 170.191 266.935 170.216C266.626 169.939 266.935 169.387 267.349 169.295C267.764 169.264 268.18 169.28 268.592 169.341C269.669 169.341 270.497 168.355 271.547 168.097C272.513 167.862 273.797 168.143 274.308 167.282C274.483 166.978 274.52 166.564 274.819 166.361C275.02 166.261 275.25 166.234 275.468 166.288C276.154 166.375 276.82 166.577 277.438 166.886C278.451 170.842 277.898 174.95 277.148 178.965C276.866 180.799 276.11 182.527 274.957 183.98Z" fill="#3F3D56"/>
<path opacity="0.1" d="M274.985 198.173L280.016 208.304C279.472 207.383 278.326 207.001 277.42 206.403C276.27 205.572 275.404 204.408 274.939 203.068C274.482 201.734 274.165 200.356 273.991 198.956C273.889 198.311 273.673 197.409 273.991 196.829C274.566 196.948 274.75 197.685 274.985 198.173Z" fill="black"/>
<path opacity="0.1" d="M289.456 206.776C290.593 207.899 291.978 208.724 293.23 209.718C296.144 212.021 298.224 215.244 300.254 218.362C300.828 219.178 301.31 220.055 301.69 220.978C301.45 221.18 301.096 220.978 300.861 220.761L296.912 217.289C296.427 216.894 295.986 216.447 295.596 215.958C294.91 215.037 294.606 213.881 293.985 212.914C293.306 211.986 292.497 211.161 291.582 210.464C290.662 209.686 286.519 206.163 287.523 204.791C288.259 205.164 288.858 206.182 289.456 206.776Z" fill="black"/>
<path d="M280.831 162.797C282.125 162.08 283.543 161.611 285.01 161.415C285.88 161.217 286.776 161.153 287.666 161.226C288.489 161.328 289.276 161.646 290.105 161.687C291.265 161.751 292.379 161.282 293.502 160.973C294.625 160.665 295.918 160.55 296.862 161.226C297.062 161.426 297.317 161.562 297.593 161.618C297.88 161.583 298.146 161.451 298.348 161.245C299.143 160.676 300.108 160.394 301.084 160.446C302.06 160.498 302.989 160.88 303.72 161.53C305.86 163.538 305.621 167.462 308.129 168.986C308.819 169.405 309.703 169.626 310.108 170.331C310.21 170.564 310.33 170.789 310.467 171.003C310.636 171.187 310.841 171.333 311.07 171.431C311.799 171.758 312.493 172.158 313.141 172.624C313.464 172.859 313.735 173.157 313.939 173.499C314.143 173.842 314.276 174.223 314.329 174.618C314.339 175.199 314.214 175.774 313.965 176.299C312.736 179.311 310.605 181.869 307.865 183.622C305.125 185.375 301.91 186.237 298.661 186.089C298.085 186.117 297.517 185.939 297.06 185.587C296.819 185.316 296.629 185.004 296.498 184.666C295.315 182.194 293.101 180.365 291.693 178.012C290.855 176.608 290.312 175.042 289.447 173.66C288.121 171.565 286.11 170.018 284.14 168.521C283.031 167.674 281.792 166.785 280.398 166.845C279.155 166.895 278.248 166.964 278.704 165.436C279.077 164.331 279.831 163.396 280.831 162.797V162.797Z" fill="#3F3D56"/>
<path opacity="0.05" d="M280.831 162.797C282.125 162.08 283.543 161.611 285.01 161.415C285.88 161.217 286.776 161.153 287.666 161.226C288.489 161.328 289.276 161.646 290.105 161.687C291.265 161.751 292.379 161.282 293.502 160.973C294.625 160.665 295.918 160.55 296.862 161.226C297.062 161.426 297.317 161.562 297.593 161.618C297.88 161.583 298.146 161.451 298.348 161.245C299.143 160.676 300.108 160.394 301.084 160.446C302.06 160.498 302.989 160.88 303.72 161.53C305.86 163.538 305.621 167.462 308.129 168.986C308.819 169.405 309.703 169.626 310.108 170.331C310.21 170.564 310.33 170.789 310.467 171.003C310.636 171.187 310.841 171.333 311.07 171.431C311.799 171.758 312.493 172.158 313.141 172.624C313.464 172.859 313.735 173.157 313.939 173.499C314.143 173.842 314.276 174.223 314.329 174.618C314.339 175.199 314.214 175.774 313.965 176.299C312.736 179.311 310.605 181.869 307.865 183.622C305.125 185.375 301.91 186.237 298.661 186.089C298.085 186.117 297.517 185.939 297.06 185.587C296.819 185.316 296.629 185.004 296.498 184.666C295.315 182.194 293.101 180.365 291.693 178.012C290.855 176.608 290.312 175.042 289.447 173.66C288.121 171.565 286.11 170.018 284.14 168.521C283.031 167.674 281.792 166.785 280.398 166.845C279.155 166.895 278.248 166.964 278.704 165.436C279.077 164.331 279.831 163.396 280.831 162.797V162.797Z" fill="black"/>
<path d="M274.75 332.14C275.597 332.932 276.761 333.278 277.889 333.522C280.472 334.027 283.086 334.35 285.714 334.489L288.264 334.682C290.754 334.871 293.248 335.065 295.752 335.074C298.838 335.085 301.919 334.819 304.958 334.277C305.078 334.289 305.2 334.273 305.313 334.23C305.426 334.187 305.528 334.118 305.61 334.028C305.692 333.939 305.751 333.831 305.784 333.715C305.817 333.598 305.823 333.475 305.8 333.356C305.746 330.244 305.366 327.146 304.668 324.114C304.378 322.866 302.145 325.661 302.044 325.776C301.814 326.102 301.51 326.37 301.157 326.558C300.805 326.746 300.413 326.849 300.014 326.858C297.446 326.996 294.569 325.435 292.526 324.045C292.09 323.72 291.628 323.432 291.145 323.183C290.788 323.023 290.41 322.916 290.022 322.866C288.7 322.741 287.371 323.01 286.202 323.639C284.669 324.399 283.32 325.481 281.801 326.278C280.566 326.914 279.233 327.336 277.857 327.526C276.476 327.719 274.81 327.812 274.097 329.013C273.484 330.008 273.908 331.353 274.75 332.14Z" fill="#3F3D56"/>
<path d="M274.75 332.601C275.597 333.393 276.761 333.738 277.889 333.982C280.471 334.487 283.086 334.81 285.714 334.949L288.263 335.143C290.753 335.332 293.248 335.525 295.752 335.534C298.838 335.546 301.919 335.279 304.957 334.738C305.097 334.733 305.234 334.699 305.36 334.639C305.486 334.579 305.598 334.493 305.689 334.388C305.929 334.069 306.122 333.717 306.26 333.342C306.205 330.234 305.367 327.13 304.667 324.1C304.377 322.852 302.145 325.647 302.044 325.762C301.813 326.089 301.51 326.356 301.157 326.544C300.805 326.732 300.413 326.835 300.014 326.844C297.446 326.983 294.569 325.421 292.525 324.031C292.09 323.706 291.628 323.418 291.145 323.17C290.788 323.009 290.409 322.902 290.022 322.852C290.353 324.694 293.004 326.932 294.371 327.613C297.133 328.995 300.428 328.304 303.517 328.465C303.743 328.456 303.968 328.51 304.166 328.622C304.534 328.866 304.557 329.391 304.548 329.833C304.52 330.57 304.428 331.436 303.788 331.813C303.468 331.965 303.116 332.038 302.762 332.025C295.152 332.357 287.528 332.089 279.96 331.224C278.687 331.141 277.434 330.863 276.246 330.4C275.469 330.038 274.744 329.573 274.092 329.018C273.098 329.773 273.908 331.813 274.75 332.601Z" fill="#E8EAF2"/>
<path d="M281.111 146.476C281.152 147.683 280.329 150.027 282.589 149.373C283.933 148.986 284.315 147.388 286.022 147.743C287.73 148.097 288.121 150.206 288.701 151.583C289.174 152.678 289.905 153.64 290.832 154.39C291.759 155.139 292.853 155.652 294.022 155.885C294.504 156 295.007 156 295.49 155.885C296.59 155.571 297.216 154.434 297.667 153.379C298.057 152.483 298.38 151.56 298.633 150.616C298.807 149.955 298.924 149.28 298.983 148.599V148.599C299.019 148.14 299.019 147.678 298.983 147.218C298.781 144.455 297.216 141.963 295.214 140.071C293.211 138.178 290.786 136.81 288.383 135.466C287.6 134.977 286.753 134.601 285.866 134.347C284.991 134.167 284.092 134.13 283.205 134.236C282.037 134.285 280.889 134.555 279.822 135.033C279.385 135.248 278.982 135.529 278.63 135.866C278.13 136.332 277.772 136.931 277.599 137.593C277.167 139.366 278.294 140.964 279.215 142.369C280.039 143.598 281.051 144.92 281.111 146.476Z" fill="#3F3D56"/>
<path opacity="0.1" d="M243.111 172.408C243.595 171.187 245.62 167.826 245.035 166.665C244.427 167.531 243.908 168.457 243.489 169.428C243.107 170.368 243.42 171.629 243.111 172.408Z" fill="black"/>
<path opacity="0.1" d="M279.169 142.355C278.248 140.95 277.116 139.352 277.549 137.575C277.763 136.794 278.225 136.104 278.865 135.608C278.717 135.869 278.604 136.147 278.529 136.437C278.096 138.215 279.229 139.813 280.149 141.217C280.968 142.461 281.99 143.787 282.036 145.339C282.082 146.545 281.258 148.894 283.518 148.236C284.862 147.849 285.244 146.251 286.952 146.605C288.66 146.96 289.051 149.064 289.631 150.446C290.104 151.54 290.835 152.503 291.762 153.252C292.688 154.001 293.783 154.514 294.951 154.747C295.432 154.862 295.934 154.862 296.415 154.747C296.667 154.683 296.906 154.574 297.119 154.425C296.777 155.116 296.177 155.645 295.448 155.898C294.967 156.014 294.466 156.014 293.985 155.898C292.816 155.666 291.722 155.153 290.795 154.403C289.868 153.654 289.137 152.691 288.664 151.597C288.084 150.216 287.707 148.12 285.985 147.757C284.264 147.393 283.896 149 282.552 149.387C280.292 150.045 281.116 147.697 281.07 146.49C281.01 144.924 279.988 143.598 279.169 142.355Z" fill="black"/>
<path opacity="0.1" d="M278.667 139.956C278.88 140.297 279.112 140.626 279.362 140.941C279.839 141.544 280.374 142.1 280.959 142.599C281.304 142.898 281.663 143.179 282.036 143.442C282.733 143.935 283.467 144.374 284.232 144.754C286.473 145.803 288.808 146.64 291.205 147.255L295.867 148.613C296.443 149.046 297.488 149.829 298.629 150.635C298.803 149.974 298.92 149.299 298.979 148.618C299.015 148.158 299.015 147.696 298.979 147.236C298.776 144.473 297.211 141.982 295.209 140.089C293.207 138.196 290.781 136.829 288.379 135.484C287.596 134.996 286.748 134.619 285.861 134.365C284.986 134.185 284.088 134.148 283.201 134.254C282.033 134.304 280.885 134.574 279.818 135.051C279.38 135.266 278.978 135.547 278.626 135.885C278.363 136.274 278.161 136.701 278.027 137.151C277.742 138.077 278.147 139.104 278.667 139.956Z" fill="black"/>
<path d="M278.667 139.638C278.88 139.981 279.112 140.311 279.362 140.628C279.838 141.231 280.373 141.785 280.959 142.281C281.303 142.583 281.662 142.866 282.036 143.128C282.735 143.617 283.469 144.052 284.232 144.432C286.474 145.478 288.808 146.315 291.205 146.932L295.867 148.291C297.497 149.52 302.942 153.554 303.858 153.052C304.935 152.458 299.025 148.272 299.025 148.272L298.753 148.48C299.618 147.932 300.07 146.67 300.267 145.578C300.685 143.631 300.701 141.619 300.313 139.665C299.853 137.736 298.689 135.898 296.921 134.996C296.139 134.591 295.191 134.319 294.62 133.697C294.533 133.607 294.458 133.506 294.394 133.398C294.363 133.346 294.333 133.292 294.307 133.237C294.247 133.065 294.163 132.902 294.058 132.753C293.736 132.38 293.138 132.495 292.678 132.555H292.517H292.254C290.501 132.592 288.802 131.634 287.03 131.634C285.088 131.634 283.431 132.758 281.723 133.527L280.743 133.987C279.505 134.563 278.575 135.175 278.064 136.815C277.742 137.759 278.147 138.79 278.667 139.638Z" fill="#303D5C"/>
<path opacity="0.1" d="M292.227 132.583C292.158 132.704 292.12 132.84 292.116 132.979C292.117 133.098 292.143 133.216 292.194 133.325C292.245 133.433 292.319 133.529 292.411 133.605C292.626 133.762 292.882 133.853 293.147 133.868C293.338 133.895 293.53 133.91 293.723 133.914C293.981 133.934 294.24 133.89 294.477 133.785C294.524 133.758 294.568 133.729 294.611 133.697C294.524 133.607 294.448 133.506 294.385 133.398C294.344 133.43 294.298 133.421 294.123 133.398C293.811 133.381 293.502 133.328 293.202 133.241C293.076 133.204 292.956 133.147 292.848 133.071C292.69 132.936 292.574 132.758 292.512 132.56L292.227 132.583Z" fill="black"/>
<path opacity="0.1" d="M298.896 148.226C298.648 148.378 298.372 148.48 298.085 148.526C297.725 148.63 297.346 148.656 296.975 148.6C296.604 148.545 296.25 148.409 295.936 148.203" fill="black"/>
<path d="M103.485 187.89C102.712 182.709 98.0124 170.63 98.0124 170.63C97.9295 170.266 97.8375 169.912 97.7316 169.553C94.3947 158.077 89.7736 157.059 89.7736 157.059L73.2316 153.531C73.364 153.619 73.4793 153.73 73.5722 153.858L73.3098 153.9C72.5521 153.005 72.0511 151.921 71.86 150.764C71.8278 150.593 71.8002 150.414 71.7771 150.234C72.9647 149.075 73.891 147.676 74.4938 146.13C75.0966 144.584 75.362 142.926 75.2722 141.269C75.1824 139.612 74.7395 137.993 73.9732 136.521C73.2068 135.049 72.1348 133.758 70.829 132.735C70.6587 132.601 70.4838 132.468 70.2997 132.343C71.0821 131.514 71.1052 130.358 70.5252 129.207C69.2181 126.495 66.3828 124.782 63.4739 123.948C61.2462 123.308 58.8298 123.101 56.6252 123.801C55.3896 124.26 54.1922 124.815 53.0443 125.463C50.8442 126.564 48.4416 127.43 46.7708 129.235C46.5567 129.422 46.3887 129.656 46.2801 129.919C46.1715 130.182 46.1252 130.466 46.1449 130.75C46.2938 131.147 46.5034 131.518 46.7662 131.851C47.2265 132.675 47.116 133.693 46.7984 134.614C46.4809 135.535 46.0022 136.345 45.7766 137.266C45.5511 138.187 45.6386 139.269 46.329 139.928C46.661 140.19 47.0067 140.435 47.3646 140.66C47.7423 140.981 48.0737 141.353 48.3495 141.765L50.3103 144.413C51.2287 145.588 52.0477 146.837 52.7589 148.148C53.1796 149.14 53.6879 150.092 54.2778 150.994C54.469 151.245 54.6883 151.474 54.9314 151.676L54.7381 151.602C55.0268 151.884 55.37 152.104 55.7467 152.249C56.1234 152.394 56.5257 152.46 56.9289 152.445H57.0302C57.1775 152.442 57.3186 152.384 57.426 152.283V152.643C57.4628 153.918 57.4536 155.272 57.3662 156.543L57.2143 156.465C56.9871 156.35 56.7316 156.303 56.4785 156.33C56.2253 156.357 55.9854 156.457 55.7875 156.617L40.548 168.843C40.548 168.843 37.2341 173.379 37.699 181.199L35.0294 192.933C35.0294 192.933 31.6879 202.889 34.2562 209.999C36.8245 217.109 38.3111 221.176 38.3111 221.176C38.3111 221.176 39.3421 229.253 40.8794 229.925C42.4167 230.598 43.0887 230.943 43.0887 230.943L43.3971 232.873C43.3971 232.873 43.4983 233.062 43.6778 233.379C44.8009 235.332 48.9571 242.221 51.3735 241.484C51.675 243.355 51.806 245.249 51.7647 247.144L54.1535 263.197C54.1535 263.197 55.8197 267.563 55.7184 269.852C55.6172 272.14 57.67 275.378 57.67 275.378C56.4237 277.657 56.0584 280.316 56.6436 282.847C57.6193 287.112 58.8528 306.821 58.8528 306.821L60.6479 311.597L60.5973 317.192C60.4485 318.099 60.068 318.953 59.4926 319.67C58.3373 320.927 58.4156 322.377 55.6402 324.091C52.8648 325.804 51.0973 326.453 51.0973 328.737C51.0936 329.046 51.0659 329.354 51.0145 329.658C50.7567 331.325 50.2551 332.228 55.3732 332.716C57.1815 332.861 59.0004 332.638 60.7206 332.062C62.4409 331.486 64.0271 330.568 65.384 329.363C65.384 329.363 66.2724 327.761 70.447 327.116C70.447 327.116 71.8692 327.038 71.9474 325.781C71.9751 325.348 71.9474 324.514 71.9474 323.602C71.8784 321.857 71.7127 319.826 71.4872 319.725C71.2616 319.624 70.7231 317.846 70.5666 317.211H71.7219C71.7219 317.211 72.8035 309.133 71.7219 303.902C70.6403 298.67 71.6207 294.963 71.6207 294.963L71.4135 281.148C71.4135 281.148 69.9775 279.624 71.1052 276.93C72.2328 274.236 71.1052 260.927 71.1052 260.927C71.1052 260.927 71.5194 256.156 72.6977 255.037C73.876 253.918 72.7575 248.042 72.6977 247.733L74.8011 254.784C74.8011 254.784 75.7216 268.802 77.6778 271.362L78.2393 277.708C78.2393 277.708 82.2436 283.552 81.4612 286.702C80.6787 289.852 82.285 301.226 82.285 301.226V312.84C82.285 312.84 80.4854 317.51 83.0031 319.186L84.0847 319.145C83.7165 319.476 83.4541 319.978 83.0399 320.406C82.5566 320.904 82.2851 322.787 82.1194 324.408C81.9905 325.79 81.9491 326.96 81.9491 326.96C82.2963 327.474 82.7526 327.906 83.2856 328.225C83.8186 328.543 84.4151 328.74 85.0328 328.802C87.035 328.917 93.6583 333.982 93.6583 333.982C93.6583 333.982 100.208 333.982 101.902 333.642L101.998 333.614C102.544 333.444 103.002 333.069 103.278 332.569C103.621 331.993 103.732 331.307 103.586 330.653C103.379 329.649 102.583 328.553 100.825 327.618C96.4291 325.316 95.7617 323.128 95.7617 323.128L92.908 318.827H93.3177C93.3177 318.827 93.0599 314.254 96.1897 309.124L95.9826 286.485C95.9826 286.485 97.2668 278.712 95.0621 274.512C95.0621 274.512 94.8826 270.045 96.3554 268.673C97.8283 267.3 94.3947 253.434 94.3947 253.434C94.3947 253.434 93.6905 245.993 92.8436 239.2C96.3094 242.488 99.9087 230.644 100.512 228.539H100.599L100.558 228.387L100.599 228.235C100.599 228.235 99.8304 225.472 100.392 226.053C100.953 226.633 102.344 224.528 102.344 224.528C102.344 224.528 102.141 213.2 104.553 207.489C106.965 201.779 103.485 187.89 103.485 187.89ZM93.1612 195.097V195.065C93.5202 201.972 93.0921 216.741 93.0921 216.741C93.0921 216.741 92.6319 218.634 92.1071 220.863L91.7435 206.84L91.3983 193.633L93.1612 195.097ZM48.9755 190.331C48.9755 190.331 50.7199 212.173 48.9755 215.323C48.4784 216.216 48.055 217.814 47.7144 219.638C47.139 218.123 45.9193 214.572 46.3336 212.679C46.8951 210.243 45.2013 203.842 45.2013 203.69C45.2013 203.538 45.0494 200.135 46.2829 197.515C47.5165 194.894 46.6926 193.785 46.6926 193.785C46.6926 193.785 47.7236 189.516 48.9571 190.345L48.9755 190.331Z" fill="url(#paint1_linear)"/>
<path d="M53.2052 239.518C51.6863 246.205 45.6384 236.092 44.2622 233.669C44.0827 233.352 43.9814 233.163 43.9814 233.163L44.6396 230.087L48.1054 228.677C48.6535 228.963 49.1729 229.301 49.6565 229.686C51.5528 231.169 54.3789 234.337 53.2052 239.518Z" fill="#FF7F5C"/>
<path d="M100.125 228.567C100.125 228.567 100.125 228.618 100.088 228.714L100.037 228.88C99.448 230.966 95.9177 242.723 92.5163 239.472C88.7882 235.894 90.6016 227.669 90.6016 227.669H90.6246L98.4492 226.863L100 228.461L100.125 228.567Z" fill="#FF7F5C"/>
<path d="M95.5866 286.407L95.7845 308.843C92.7145 313.936 92.9677 318.477 92.9677 318.477L82.8418 318.878C80.3702 317.215 82.1376 312.578 82.1376 312.578V301.028C82.1376 301.028 80.5727 289.736 81.3275 286.61C82.0824 283.483 78.1563 277.685 78.1563 277.685L77.5948 271.394C75.68 268.875 74.7733 254.959 74.7733 254.959L72.7113 247.964C72.7666 248.268 73.8344 254.13 72.7113 255.212C71.5883 256.294 71.151 261.06 71.151 261.06C71.151 261.06 72.2603 274.268 71.151 276.943C70.0418 279.619 71.4502 281.13 71.4502 281.13L71.6527 294.844C71.6527 294.844 70.6954 298.528 71.754 303.713C72.8126 308.898 71.754 316.925 71.754 316.925H60.864L60.9147 311.33L59.1611 306.573C59.1611 306.573 57.9505 287.015 56.9932 282.778C56.4176 280.268 56.7759 277.634 58.0012 275.369C58.0012 275.369 55.9852 272.145 56.0865 269.87C56.1877 267.595 54.5584 263.266 54.5584 263.266L52.2156 247.333C52.2779 244.259 51.8808 241.194 51.0373 238.238C49.6565 233.702 47.6636 227.752 47.6636 227.752L49.9373 227.954L61.421 228.977C61.421 228.977 89.3362 227.098 90.5881 228.659C90.8523 229.168 91.0296 229.717 91.1128 230.285C92.3647 235.921 94.0217 253.568 94.0217 253.568C94.0217 253.568 97.4001 267.333 95.9502 268.691C94.5004 270.05 94.6799 274.489 94.6799 274.489C96.8431 278.693 95.5866 286.407 95.5866 286.407Z" fill="#3F3D56"/>
<path d="M71.9888 325.417C71.9105 326.669 70.5159 326.743 70.5159 326.743C66.4334 327.383 65.5635 328.977 65.5635 328.977C64.2365 330.169 62.6812 331.079 60.9919 331.651C59.3026 332.224 57.5147 332.446 55.7367 332.306C50.7152 331.818 51.2077 330.925 51.4609 329.267C51.5128 328.962 51.5405 328.654 51.5437 328.346C51.5437 326.075 53.2789 325.431 56.0037 323.741C58.7285 322.05 58.6456 320.6 59.7825 319.357C60.9194 318.113 61.0298 315.672 61.0298 315.672C62.314 313.444 65.5635 316.013 65.5635 316.013C65.7153 316.805 70.5528 316.695 70.5528 316.695C70.5528 316.695 71.1971 319.264 71.5239 319.416C71.7448 319.518 71.9059 321.535 71.9842 323.266C72.0072 324.164 72.0164 324.989 71.9888 325.417Z" fill="#303D5C"/>
<path opacity="0.1" d="M71.9888 325.417C71.9105 326.669 70.5159 326.743 70.5159 326.743C66.4334 327.383 65.5634 328.977 65.5634 328.977C64.2365 330.169 62.6812 331.079 60.9919 331.651C59.3026 332.224 57.5147 332.446 55.7367 332.306C50.7152 331.818 51.2077 330.925 51.4609 329.267C53.7024 329.824 57.9967 330.602 60.4959 329.239C63.9755 327.351 66.4794 326.016 66.4794 326.016L72.0026 323.252C72.0072 324.164 72.0164 324.989 71.9888 325.417Z" fill="black"/>
<path d="M102.748 332.149C102.477 332.642 102.027 333.013 101.492 333.186L101.395 333.213C99.7336 333.549 93.3037 333.549 93.3037 333.549C93.3037 333.549 86.8047 328.521 84.8394 328.406C84.233 328.344 83.6475 328.15 83.1248 327.836C82.6021 327.523 82.155 327.098 81.8154 326.591C81.8154 326.591 81.8522 325.421 81.9811 324.058C82.133 322.451 82.4 320.581 82.874 320.089C83.7439 319.168 83.9327 317.934 85.898 318.707C85.898 318.707 88.6918 313.784 91.9781 317.588L95.3841 322.755C95.3841 322.755 96.0239 324.91 100.337 327.217C102.063 328.138 102.845 329.23 103.048 330.225C103.194 330.881 103.087 331.568 102.748 332.149V332.149Z" fill="#303D5C"/>
<path opacity="0.1" d="M102.748 332.149C102.362 332.472 101.938 332.826 101.492 333.186L101.395 333.213C99.7336 333.549 93.3037 333.549 93.3037 333.549C93.3037 333.549 86.8047 328.521 84.8394 328.406C84.233 328.344 83.6475 328.15 83.1248 327.836C82.6021 327.523 82.155 327.098 81.8154 326.591C81.8154 326.591 81.8522 325.421 81.9811 324.058C83.9787 324.662 87.0118 325.716 87.8265 326.858C89.0692 328.594 92.8572 331.003 92.8572 331.003C92.8572 331.003 99.9131 330.326 103.048 330.229C103.192 330.884 103.086 331.57 102.748 332.149V332.149Z" fill="black"/>
<path d="M75.2701 156.198L65.9773 166.03C65.9773 166.03 54.7146 165.196 56.68 161.885C57.6833 160.19 57.8398 156.64 57.7524 153.554C57.6695 150.579 57.3611 148.028 57.3611 148.028C57.3611 148.028 73.1621 140.149 71.9516 147.517C71.693 148.901 71.6774 150.319 71.9056 151.708C72.596 155.392 75.2701 156.198 75.2701 156.198Z" fill="#FF7F5C"/>
<path opacity="0.1" d="M71.9519 147.517C71.6933 148.901 71.6777 150.319 71.9059 151.708C69.7979 153.84 66.8706 153.37 63.6211 153.37C61.4763 153.37 59.1749 153.402 57.4489 152.385C57.3661 149.405 57.3477 148.047 57.3477 148.047C57.3477 148.047 73.1624 140.149 71.9519 147.517Z" fill="black"/>
<path d="M75.2703 142.912C75.2691 146.001 74.0417 148.963 71.858 151.147C69.6744 153.331 66.7132 154.558 63.6256 154.558C60.5404 154.555 57.5827 153.326 55.402 151.143C53.2213 148.959 51.9958 145.999 51.9946 142.912C52.0986 139.893 53.3702 137.033 55.5414 134.934C57.7126 132.835 60.6135 131.662 63.6325 131.662C66.6514 131.662 69.5524 132.835 71.7236 134.934C73.8947 137.033 75.1664 139.893 75.2703 142.912V142.912Z" fill="#FF7F5C"/>
<path opacity="0.1" d="M91.1127 230.303C88.2176 237.211 69.5676 237.349 69.5676 237.349V229.824L68.4399 229.75C68.9278 231.906 67.7541 237.16 67.7541 237.16C53.0256 239.242 49.4263 230.846 49.4263 230.846L49.9372 227.973L61.4208 228.995C61.4208 228.995 89.336 227.116 90.588 228.677C90.8521 229.186 91.0295 229.736 91.1127 230.303V230.303Z" fill="black"/>
<path d="M69.5676 236.442V228.912L68.4399 228.843C68.9278 230.994 67.7541 236.253 67.7541 236.253C56.6617 237.819 51.8841 233.448 50.1995 231.187C49.8986 230.798 49.6394 230.378 49.4263 229.935L53.9231 204.607L54.9817 167.305L56.6064 160.766L56.9792 157.625V157.588H57.0207L58.1667 158.081L65.0293 161.052L72.8262 155.162L72.9367 155.074L73.3279 154.779L73.9723 155.3L75.574 156.585L80.7152 189.787C80.7152 189.787 89.6306 215.359 91.3014 225.679C91.3658 226.089 91.421 226.472 91.4625 226.831C92.5487 236.267 69.5676 236.442 69.5676 236.442Z" fill="#E1E7EF"/>
<path d="M65.8669 162.461C66.2329 162.461 66.5297 162.164 66.5297 161.798C66.5297 161.431 66.2329 161.134 65.8669 161.134C65.5008 161.134 65.2041 161.431 65.2041 161.798C65.2041 162.164 65.5008 162.461 65.8669 162.461Z" fill="#67647E"/>
<path d="M66.1711 168.512C66.5371 168.512 66.8339 168.215 66.8339 167.849C66.8339 167.482 66.5371 167.185 66.1711 167.185C65.805 167.185 65.5083 167.482 65.5083 167.849C65.5083 168.215 65.805 168.512 66.1711 168.512Z" fill="#67647E"/>
<path d="M66.8337 178.302C67.1997 178.302 67.4965 178.005 67.4965 177.639C67.4965 177.273 67.1997 176.976 66.8337 176.976C66.4676 176.976 66.1709 177.273 66.1709 177.639C66.1709 178.005 66.4676 178.302 66.8337 178.302Z" fill="#67647E"/>
<path d="M67.9289 188.852C68.2949 188.852 68.5917 188.556 68.5917 188.189C68.5917 187.823 68.2949 187.526 67.9289 187.526C67.5629 187.526 67.2661 187.823 67.2661 188.189C67.2661 188.556 67.5629 188.852 67.9289 188.852Z" fill="#67647E"/>
<path d="M68.592 198.763C68.958 198.763 69.2548 198.466 69.2548 198.1C69.2548 197.733 68.958 197.436 68.592 197.436C68.2259 197.436 67.9292 197.733 67.9292 198.1C67.9292 198.466 68.2259 198.763 68.592 198.763Z" fill="#67647E"/>
<path d="M69.2546 209.313C69.6206 209.313 69.9174 209.016 69.9174 208.65C69.9174 208.284 69.6206 207.987 69.2546 207.987C68.8885 207.987 68.5918 208.284 68.5918 208.65C68.5918 209.016 68.8885 209.313 69.2546 209.313Z" fill="#67647E"/>
<path d="M68.9875 219.748C69.3535 219.748 69.6503 219.451 69.6503 219.085C69.6503 218.719 69.3535 218.422 68.9875 218.422C68.6214 218.422 68.3247 218.719 68.3247 219.085C68.3247 219.451 68.6214 219.748 68.9875 219.748Z" fill="#67647E"/>
<path opacity="0.1" d="M57.4211 208.304C57.4211 208.304 56.6801 218.007 55.3223 220.83C53.9645 223.653 53.3569 231.569 53.3569 231.569L50.1995 231.21C49.8986 230.821 49.6394 230.401 49.4263 229.958L53.9231 204.63L54.9817 167.328L56.6064 160.789L56.9792 157.648H57.0253C57.2002 157.563 57.3922 157.519 57.5868 157.519C57.7813 157.519 57.9734 157.563 58.1483 157.648L58.3002 157.727C58.2542 157.856 58.2082 157.989 58.1713 158.123C56.9378 161.982 56.4776 169.092 56.4776 169.092C56.4776 169.092 58.245 182.101 58.4429 188.153C58.6408 194.204 57.4211 208.304 57.4211 208.304Z" fill="black"/>
<path opacity="0.1" d="M49.6565 229.686C49.6207 229.767 49.5791 229.846 49.5323 229.921C48.308 231.993 45.2058 233.306 44.2622 233.669C44.0827 233.352 43.9814 233.163 43.9814 233.163L44.6396 230.087L48.1054 228.677C48.6535 228.963 49.1729 229.301 49.6565 229.686Z" fill="black"/>
<path d="M41.2611 180.172L38.389 181.885L35.7701 193.536C35.7701 193.536 32.493 203.414 35.0107 210.473C37.5283 217.533 38.992 221.567 38.992 221.567C38.992 221.567 40 229.585 41.5143 230.239C43.0285 230.892 43.6821 231.247 43.6821 231.247L43.9721 233.172C43.9721 233.172 48.0731 231.79 49.5275 229.327C50.982 226.863 48.4597 220.77 48.4597 220.77C48.4597 220.77 46.2918 215.576 46.8442 213.158C47.3965 210.741 45.7395 204.409 45.7395 204.234C45.7395 204.059 45.5876 200.701 46.7935 198.104C47.9994 195.507 47.1986 194.42 47.1986 194.42L46.4437 187.006L41.2611 180.172Z" fill="#303D5C"/>
<path opacity="0.1" d="M91.352 228.106C91.352 228.106 83.7438 230.98 81.3228 228.461C78.9018 225.942 79.1549 214.139 79.1549 214.139C79.1549 214.139 76.8536 192.362 75.3762 188.779C73.8987 185.196 74.6719 159.384 74.6719 159.384C74.6719 159.384 73.687 156.046 72.8309 155.175C72.7771 155.118 72.7169 155.067 72.6514 155.023L72.9413 155.088L73.9769 155.314L75.5787 156.598L80.7199 189.801C80.7199 189.801 89.6352 215.373 91.306 225.693L91.352 228.106Z" fill="black"/>
<path opacity="0.1" d="M100.125 228.88H100.038C99.0848 229.004 90.625 230.027 90.5928 228.263C90.592 228.06 90.6027 227.857 90.625 227.655L98.4496 226.849L100.001 228.447C100.028 228.548 100.051 228.641 100.074 228.71L100.125 228.88Z" fill="black"/>
<path d="M92.0102 168.507L97.5702 171.408C97.5702 171.408 102.173 183.382 102.942 188.544C102.942 188.544 106.371 202.318 104 207.987C101.63 213.656 101.837 224.897 101.837 224.897C101.837 224.897 100.456 226.964 99.9176 226.407C99.3791 225.85 100.125 228.567 100.125 228.567C100.125 228.567 90.6294 229.829 90.588 227.964C90.5466 226.099 92.7604 217.183 92.7604 217.183C92.7604 217.183 93.3634 195.954 92.5073 192.624C91.6512 189.295 92.0102 168.507 92.0102 168.507Z" fill="#303D5C"/>
<path opacity="0.1" d="M75.4268 191.114C75.4268 191.114 72.3062 198.777 71.2844 199.283C70.2626 199.79 71.4823 201.802 71.4823 201.802C71.4823 201.802 77.1942 193.835 75.4268 191.114Z" fill="black"/>
<path opacity="0.1" d="M73.5627 164.238C73.5995 164.091 69.8345 167.922 68.8266 168.507C67.8186 169.092 72.5087 168.475 73.5627 164.238Z" fill="black"/>
<path opacity="0.1" d="M63.0826 190.51C63.0826 190.51 57.3384 194.227 58.0933 195.696C58.8481 197.165 63.0826 190.51 63.0826 190.51Z" fill="black"/>
<path opacity="0.1" d="M73.5122 244.758C73.5122 244.758 78.4049 247.908 86.0131 248.691L73.5122 244.758Z" fill="black"/>
<path opacity="0.1" d="M61.7705 252.325C61.7705 252.325 66.3087 258.04 68.3661 258.173C70.4235 258.307 61.7705 252.325 61.7705 252.325Z" fill="black"/>
<path opacity="0.1" d="M68.1224 274.659C67.9198 274.761 65.5495 279.803 63.1331 279.955C60.7167 280.107 68.1224 274.659 68.1224 274.659Z" fill="black"/>
<path opacity="0.1" d="M89.1338 285.702C89.1338 285.702 93.6306 284.694 94.6294 287.922C94.6294 287.922 94.3256 286.914 89.1338 285.702Z" fill="black"/>
<path opacity="0.1" d="M86.1143 304.155C86.1143 304.155 91.5546 303.045 92.7145 304.56C93.8744 306.075 86.1143 304.155 86.1143 304.155Z" fill="black"/>
<path opacity="0.1" d="M70.7089 306.725C70.7089 306.775 65.1857 307.835 65.3836 308.544C65.5815 309.253 71.298 309.147 71.496 308.037C71.5344 307.899 71.5443 307.755 71.5251 307.613C71.5059 307.471 71.458 307.334 71.3844 307.212C71.3108 307.089 71.2129 306.982 71.0967 306.899C70.9806 306.815 70.8486 306.756 70.7089 306.725V306.725Z" fill="black"/>
<path opacity="0.1" d="M84.2964 311.519C84.2964 311.519 93.4051 310.409 92.8297 312.325C92.2544 314.24 84.2964 311.519 84.2964 311.519Z" fill="black"/>
<path opacity="0.1" d="M36.6079 199.283C36.6585 199.435 42.5914 200.241 43.4107 202.157C43.4107 202.157 37.5653 199.435 36.6585 199.435" fill="black"/>
<path opacity="0.1" d="M44.9892 214.862C44.9892 214.862 40.0505 216.423 40.3865 218.795C40.7225 221.167 39.9032 217.69 44.9892 214.862Z" fill="black"/>
<path opacity="0.1" d="M42.688 226.863C42.688 226.863 44.4876 224.39 46.1998 224.846C47.912 225.302 42.688 226.863 42.688 226.863Z" fill="black"/>
<path opacity="0.1" d="M70.898 133.785C70.7239 133.953 70.529 134.099 70.3181 134.218C68.8866 135.046 68.477 136.327 67.8142 137.8C67.1883 139.15 66.4886 140.563 65.2183 141.346C63.5798 142.336 61.4165 141.973 59.6951 142.834C58.9402 143.232 58.3205 143.845 57.9148 144.596C57.5091 145.347 57.3358 146.202 57.4168 147.052C57.5176 147.707 57.6715 148.352 57.8771 148.982C58.2681 150.344 58.4436 151.76 58.3972 153.177C58.4017 153.218 58.4017 153.26 58.3972 153.301C56.9388 152.57 55.6503 151.541 54.6151 150.28C53.5799 149.019 52.8211 147.554 52.3881 145.981C51.955 144.407 51.8572 142.76 52.1011 141.147C52.345 139.533 52.9251 137.989 53.8038 136.614C54.6825 135.239 55.8401 134.064 57.2018 133.166C58.5634 132.267 60.0985 131.665 61.7076 131.398C63.3168 131.132 64.964 131.206 66.5425 131.617C68.1209 132.028 69.5954 132.767 70.8704 133.785H70.898Z" fill="black"/>
<path d="M70.5944 130.28C69.3149 127.591 66.5348 125.887 63.6904 125.058C61.5087 124.427 59.1384 124.22 56.9705 124.915C55.7584 125.372 54.5841 125.923 53.4587 126.564C51.3 127.655 48.925 128.521 47.3003 130.312C47.0905 130.499 46.9263 130.732 46.8202 130.992C46.7141 131.252 46.6689 131.533 46.6881 131.814C46.8321 132.207 47.0372 132.575 47.2957 132.905C47.7559 133.725 47.6363 134.747 47.3279 135.668C47.0195 136.589 46.5454 137.386 46.3245 138.302C46.1036 139.219 46.191 140.287 46.8676 140.941C47.1926 141.201 47.5306 141.443 47.8802 141.669C48.2534 141.987 48.5803 142.356 48.8514 142.765L50.7707 145.394C51.673 146.562 52.4781 147.802 53.1779 149.101C53.5902 150.085 54.0893 151.029 54.6692 151.924C55.3089 152.776 56.3077 153.458 57.3709 153.366C57.4525 153.368 57.5334 153.351 57.607 153.315C57.6807 153.28 57.7449 153.228 57.7944 153.163C57.8337 153.08 57.8527 152.988 57.8496 152.896C57.8911 151.479 57.7157 150.064 57.3295 148.701C57.112 148.073 56.9488 147.427 56.8416 146.771C56.7627 145.919 56.9395 145.062 57.3494 144.311C57.7593 143.559 58.3837 142.947 59.143 142.553C60.8552 141.692 63.0184 142.06 64.6662 141.07C65.9365 140.301 66.6361 138.873 67.2621 137.519C67.9479 136.046 68.3299 134.756 69.7659 133.937C71.202 133.117 71.3032 131.694 70.5944 130.28Z" fill="#303D5C"/>
<path opacity="0.1" d="M65.3794 320.669C65.3794 320.669 67.1514 322.939 66.6958 324.224C66.2401 325.509 65.3794 320.669 65.3794 320.669Z" fill="black"/>
<path opacity="0.1" d="M89.4697 326.329C89.4697 326.329 89.8656 323.285 91.4535 323.257C93.0414 323.229 93.115 323.091 94.3255 323.556C95.536 324.022 96.6729 324.749 96.3139 324.86C95.9549 324.97 94.2243 323.114 92.4615 324.058C91.3576 324.663 90.3494 325.428 89.4697 326.329Z" fill="black"/>
<path opacity="0.1" d="M60.0812 164.878L65.0521 161.378C65.0521 161.378 57.7569 157.068 56.887 157.671C56.0171 158.275 55.4233 163.727 55.4233 163.727L60.0812 164.878Z" fill="black"/>
<path d="M60.0448 164.648L65.0341 161.075C65.0341 161.075 57.7388 156.764 56.8689 157.39C55.999 158.017 55.4053 163.745 55.4053 163.745L60.0448 164.648Z" fill="#E1E7EF"/>
<path opacity="0.03" d="M60.0448 164.648L65.0341 161.075C65.0341 161.075 57.7388 156.764 56.8689 157.39C55.999 158.017 55.4053 163.745 55.4053 163.745L60.0448 164.648Z" fill="black"/>
<path d="M57.6973 157.409L57.5454 157.335C57.3251 157.226 57.0781 157.182 56.8336 157.208C56.589 157.234 56.357 157.329 56.1646 157.483L41.2105 169.622C41.2105 169.622 37.961 174.121 38.4121 181.885L47.194 194.392C47.194 194.392 48.202 190.156 49.4125 190.962C49.4125 190.962 51.1247 212.642 49.4125 215.769C47.7003 218.896 46.9409 230.593 46.9409 230.593L52.7356 231.247C52.7356 231.247 53.3432 223.331 54.701 220.508C56.0588 217.685 56.8044 207.987 56.8044 207.987C56.8044 207.987 58.0287 193.886 57.8262 187.835C57.6237 181.784 55.8608 168.779 55.8608 168.779C55.8608 168.779 56.3671 161.153 57.6973 157.409Z" fill="#303D5C"/>
<path opacity="0.1" d="M72.5961 162.663L66.3779 160.361C66.3779 160.361 74.2945 151.689 75.2795 156.502L72.5961 162.663Z" fill="black"/>
<path d="M72.5961 162.359L66.3779 160.057C66.3779 160.057 74.2945 151.381 75.2795 156.193L72.5961 162.359Z" fill="#E1E7EF"/>
<path opacity="0.03" d="M72.5961 162.359L66.3779 160.057C66.3779 160.057 74.2945 151.381 75.2795 156.193L72.5961 162.359Z" fill="black"/>
<path opacity="0.1" d="M72.394 154.987C72.4833 154.97 72.5755 154.988 72.6518 155.037L72.394 154.987Z" fill="black"/>
<path d="M72.9966 154.379L89.488 157.938C89.488 157.938 94.0216 158.947 97.3125 170.34C100.603 181.733 92.8295 195.696 92.8295 195.696L91.1127 194.24L91.9734 227.517C91.9734 227.517 84.3606 230.391 81.9442 227.872C79.5278 225.353 79.7763 213.55 79.7763 213.55C79.7763 213.55 77.475 191.768 75.9975 188.189C74.5201 184.611 75.2703 158.795 75.2703 158.795C75.2703 158.795 73.9171 154.181 72.9966 154.379Z" fill="#303D5C"/>
<path opacity="0.1" d="M88.0797 175.608C87.8449 175.825 87.5734 185.891 88.5814 193.568C89.2002 198.236 90.1555 202.853 91.4396 207.383L89.9438 176.677C89.9438 176.677 88.7839 174.927 88.0797 175.608Z" fill="black"/>
<path opacity="0.1" d="M86.0635 166.914C86.4639 167.162 88.2267 171.349 87.4213 173.062C86.6158 174.775 86.0635 166.914 86.0635 166.914Z" fill="black"/>
<path opacity="0.1" d="M70.4977 130.28C69.6911 128.683 68.4288 127.36 66.8708 126.481C68.0262 127.306 68.9605 128.404 69.591 129.677C70.2952 131.091 70.0927 132.509 68.7073 133.31C67.3219 134.112 66.8662 135.415 66.2034 136.893C65.5774 138.242 64.8824 139.656 63.6075 140.439C61.9689 141.429 59.8057 141.065 58.0843 141.926C57.3289 142.324 56.7089 142.937 56.3032 143.689C55.8974 144.44 55.7243 145.295 55.806 146.145C55.9073 146.799 56.0612 147.445 56.2662 148.074C56.6573 149.437 56.8328 150.853 56.7863 152.27C56.7918 152.362 56.7727 152.454 56.7311 152.537C56.6818 152.602 56.6177 152.654 56.544 152.69C56.4703 152.725 56.3893 152.742 56.3077 152.739C55.8806 152.77 55.4528 152.691 55.0649 152.509C55.3467 152.788 55.683 153.006 56.0529 153.15C56.4227 153.293 56.8181 153.359 57.2144 153.343C57.2766 153.35 57.3397 153.343 57.3989 153.323C57.4581 153.302 57.5119 153.268 57.5562 153.224C57.6005 153.18 57.6342 153.126 57.6547 153.067C57.6752 153.007 57.6821 152.944 57.6747 152.882C57.72 151.465 57.5461 150.05 57.1592 148.687C56.9416 148.059 56.7784 147.413 56.6713 146.757C56.5903 145.907 56.7636 145.053 57.1693 144.301C57.575 143.55 58.1946 142.937 58.9496 142.539C60.6572 141.678 62.8204 142.046 64.4728 141.056C65.7477 140.287 66.4427 138.86 67.0687 137.506C67.7591 136.032 68.1411 134.743 69.5726 133.923C71.004 133.103 71.2019 131.694 70.4977 130.28Z" fill="black"/>
<path opacity="0.1" d="M239.839 359.716C250.261 359.716 258.71 358.555 258.71 357.123C258.71 355.691 250.261 354.53 239.839 354.53C229.417 354.53 220.968 355.691 220.968 357.123C220.968 358.555 229.417 359.716 239.839 359.716Z" fill="#3455DB"/>
<path d="M247.489 353.89C248.335 353.202 248.951 352.272 249.256 351.224C249.482 350.165 249.031 348.898 248.023 348.511C246.89 348.079 245.68 348.861 244.764 349.658C243.848 350.455 242.794 351.353 241.593 351.187C242.21 350.627 242.673 349.917 242.934 349.125C243.195 348.333 243.247 347.487 243.084 346.669C243.034 346.33 242.891 346.011 242.67 345.748C242.044 345.076 240.902 345.362 240.147 345.891C237.754 347.577 237.087 350.828 237.077 353.757C236.834 352.702 237.036 351.601 237.031 350.533C237.027 349.465 236.728 348.231 235.816 347.664C235.251 347.362 234.616 347.213 233.975 347.231C232.898 347.19 231.702 347.296 230.965 348.083C230.045 349.064 230.289 350.703 231.085 351.767C231.881 352.831 233.087 353.517 234.196 354.263C235.09 354.793 235.851 355.519 236.424 356.386C236.491 356.508 236.546 356.636 236.59 356.768H243.332C244.84 355.999 246.238 355.031 247.489 353.89V353.89Z" fill="#3455DB"/>
<path opacity="0.1" d="M14.1471 343.28C21.5544 343.28 27.5592 342.455 27.5592 341.438C27.5592 340.421 21.5544 339.596 14.1471 339.596C6.7397 339.596 0.734863 340.421 0.734863 341.438C0.734863 342.455 6.7397 343.28 14.1471 343.28Z" fill="#3455DB"/>
<path d="M17.8105 335.405C18.6564 334.715 19.2728 333.783 19.5779 332.734C19.8034 331.68 19.357 330.409 18.3444 330.022C17.2121 329.589 16.0016 330.377 15.0857 331.169C14.1698 331.961 13.1158 332.863 11.9145 332.697C12.533 332.138 12.9957 331.428 13.2571 330.636C13.5185 329.844 13.5698 328.998 13.4057 328.18C13.3561 327.84 13.2126 327.521 12.9915 327.259C12.3655 326.587 11.2241 326.872 10.4738 327.402C8.08044 329.087 7.41305 332.338 7.39925 335.267C7.1553 334.213 7.35782 333.112 7.35322 332.044C7.34862 330.975 7.04944 329.741 6.13811 329.175C5.57302 328.871 4.93807 328.722 4.29705 328.742C3.22002 328.7 2.02332 328.811 1.2869 329.594C0.366363 330.575 0.610302 332.214 1.40656 333.278C2.20283 334.342 3.40873 335.032 4.52258 335.774C5.41361 336.305 6.17346 337.031 6.74567 337.897C6.81273 338.019 6.86821 338.147 6.91136 338.279H13.6543C15.162 337.511 16.5599 336.545 17.8105 335.405V335.405Z" fill="#3455DB"/>
<path d="M338.934 302.064C338.934 302.064 341.466 305.375 337.77 310.354C334.074 315.332 331.027 319.564 332.247 322.681C332.247 322.681 337.821 313.402 342.373 313.273C346.925 313.144 343.928 307.646 338.934 302.064Z" fill="#3455DB"/>
<path opacity="0.1" d="M338.935 302.064C339.156 302.385 339.331 302.735 339.455 303.105C343.882 308.309 346.239 313.167 341.981 313.287C338.019 313.402 333.264 320.494 332.123 322.285C332.16 322.425 332.206 322.562 332.261 322.695C332.261 322.695 337.834 313.416 342.387 313.287C346.939 313.158 343.928 307.646 338.935 302.064Z" fill="black"/>
<path d="M343.638 306.283C343.638 307.448 343.505 308.392 343.344 308.392C343.183 308.392 343.054 307.448 343.054 306.283C343.054 305.118 343.215 305.666 343.376 305.666C343.537 305.666 343.638 305.118 343.638 306.283Z" fill="#FFD037"/>
<path d="M345.249 307.673C344.227 308.231 343.339 308.567 343.261 308.424C343.183 308.281 343.947 307.719 344.968 307.162C345.99 306.605 345.59 307.01 345.668 307.162C345.746 307.314 346.271 307.116 345.249 307.673Z" fill="#FFD037"/>
<path d="M325.582 302.064C325.582 302.064 323.05 305.375 326.746 310.354C330.442 315.332 333.489 319.564 332.27 322.681C332.27 322.681 326.691 313.402 322.144 313.273C317.596 313.144 320.593 307.646 325.582 302.064Z" fill="#3455DB"/>
<path opacity="0.1" d="M325.582 302.064C325.36 302.385 325.185 302.735 325.062 303.105C320.634 308.309 318.277 313.167 322.535 313.287C326.498 313.402 331.252 320.494 332.394 322.285C332.356 322.424 332.312 322.561 332.26 322.695C332.26 322.695 326.682 313.416 322.134 313.287C317.587 313.158 320.592 307.646 325.582 302.064Z" fill="black"/>
<path d="M320.878 306.283C320.878 307.448 321.012 308.392 321.173 308.392C321.334 308.392 321.463 307.448 321.463 306.283C321.463 305.118 321.302 305.666 321.141 305.666C320.98 305.666 320.878 305.118 320.878 306.283Z" fill="#FFD037"/>
<path d="M319.267 307.673C320.289 308.231 321.182 308.567 321.255 308.424C321.329 308.281 320.57 307.719 319.548 307.162C318.526 306.605 318.926 307.01 318.848 307.162C318.77 307.314 318.245 307.116 319.267 307.673Z" fill="#FFD037"/>
<path d="M321.684 322.262C321.684 322.262 328.753 322.041 330.889 320.526C333.025 319.011 341.765 317.197 342.294 319.605C342.824 322.014 352.917 331.712 344.936 331.776C336.955 331.841 326.392 330.533 324.266 329.239C322.139 327.945 321.684 322.262 321.684 322.262Z" fill="#3455DB"/>
<path opacity="0.2" d="M345.074 330.952C337.093 331.017 326.53 329.709 324.404 328.415C322.784 327.429 322.139 323.888 321.923 322.253H321.684C321.684 322.253 322.144 327.954 324.261 329.253C326.378 330.552 336.951 331.855 344.932 331.79C347.233 331.79 348.029 330.952 347.988 329.741C347.666 330.482 346.787 330.938 345.074 330.952Z" fill="black"/>
<defs>
<linearGradient id="paint0_linear" x1="273.6" y1="335.074" x2="273.6" y2="130.575" gradientUnits="userSpaceOnUse">
<stop stop-color="#808080" stop-opacity="0.25"/>
<stop offset="0.54" stop-color="#808080" stop-opacity="0.12"/>
<stop offset="1" stop-color="#808080" stop-opacity="0.1"/>
</linearGradient>
<linearGradient id="paint1_linear" x1="122494" y1="165228" x2="122494" y2="68896.8" gradientUnits="userSpaceOnUse">
<stop stop-color="#808080" stop-opacity="0.25"/>
<stop offset="0.54" stop-color="#808080" stop-opacity="0.12"/>
<stop offset="1" stop-color="#808080" stop-opacity="0.1"/>
</linearGradient>
</defs>
</svg>
